<svg xmlns="http://www.w3.org/2000/svg" width="642" height="264" fill="none"><path stroke="url(#a)" stroke-linecap="round" stroke-linejoin="round" stroke-width="2.438" d="M23 16.25h13m-14.625 6.5H23m13 0h1.625"/><path stroke="url(#b)" stroke-width="2.438" d="M14.875 29.25V18.541c0-.44.09-.875.263-1.279l3.769-8.79A3.25 3.25 0 0 1 21.893 6.5h15.214a3.25 3.25 0 0 1 2.986 1.97l3.77 8.79c.174.406.263.842.262 1.283V29.25m-29.25 0v3.9a.975.975 0 0 0 .975.975h4.55a.975.975 0 0 0 .975-.975v-3.9m-6.5 0h6.5m22.75 0v3.9a.975.975 0 0 1-.975.975H38.6a.975.975 0 0 1-.975-.975v-3.9m6.5 0h-6.5m-16.25 0h16.25"/><rect width="4" height="107" y="3" fill="url(#c)" rx="2"/><path fill="#fff" d="M14.383 50.112q.12-2.4 1.68-3.696 1.584-1.32 4.152-1.32 1.752 0 3 .624 1.248.6 1.872 1.656.647 1.032.648 2.352 0 1.512-.793 2.568-.768 1.032-1.848 1.392v.096q1.392.432 2.16 1.536.792 1.104.793 2.832 0 1.44-.672 2.568-.649 1.128-1.945 1.776-1.272.624-3.072.624-2.712 0-4.415-1.368-1.704-1.368-1.8-4.032h3.264q.048 1.176.791 1.896.769.696 2.089.696 1.224 0 1.872-.672.672-.696.672-1.776 0-1.44-.912-2.064-.913-.624-2.832-.624h-.697v-2.76h.697q3.407 0 3.407-2.28 0-1.032-.623-1.608-.6-.576-1.752-.576-1.13 0-1.753.624-.6.6-.695 1.536zm13.91-1.512v-3.096h5.785V63h-3.456V48.6zm13.16 10.872-2.808 6.744h-2.16l1.56-6.744zm2.038-5.448q0-4.152 1.488-6.504 1.512-2.352 4.992-2.352t4.968 2.352q1.512 2.352 1.512 6.504 0 4.176-1.512 6.552-1.488 2.376-4.968 2.376t-4.992-2.376Q43.49 58.2 43.49 54.024m9.648 0q0-1.776-.24-2.976-.216-1.224-.912-1.992-.672-.768-2.016-.768t-2.04.768q-.672.768-.912 1.992-.216 1.2-.216 2.976 0 1.824.216 3.072.216 1.224.912 1.992.696.744 2.04.744t2.04-.744q.696-.768.912-1.992.216-1.248.216-3.072m5.867 0q0-4.152 1.488-6.504 1.512-2.352 4.992-2.352t4.968 2.352q1.512 2.352 1.512 6.504 0 4.176-1.512 6.552-1.488 2.376-4.968 2.376t-4.992-2.376q-1.488-2.376-1.488-6.552m9.648 0q0-1.776-.24-2.976-.216-1.224-.912-1.992-.672-.768-2.016-.768t-2.04.768q-.672.768-.912 1.992-.216 1.2-.216 2.976 0 1.824.216 3.072.216 1.224.912 1.992.696.744 2.04.744t2.04-.744q.696-.768.912-1.992.216-1.248.216-3.072m5.868 0q0-4.152 1.488-6.504 1.512-2.352 4.992-2.352t4.968 2.352q1.512 2.352 1.512 6.504 0 4.176-1.512 6.552-1.488 2.376-4.968 2.376t-4.992-2.376q-1.488-2.376-1.488-6.552m9.648 0q0-1.776-.24-2.976-.216-1.224-.912-1.992-.672-.768-2.016-.768t-2.04.768q-.672.768-.912 1.992-.216 1.2-.216 2.976 0 1.824.216 3.072.216 1.224.912 1.992.696.744 2.04.744t2.04-.744q.696-.768.912-1.992.216-1.248.216-3.072m18.804 1.896h-4.536v4.656H95.27V55.92h-4.536v-2.928h4.536v-4.656h3.168v4.656h4.536zM19.98 76.84q1.24 0 2.24.54 1 .52 1.56 1.58.58 1.06.58 2.58V88h-1.8v-6.2q0-1.64-.82-2.5-.82-.88-2.24-.88-1.44 0-2.3.9-.84.9-.84 2.62V88h-1.82V73.2h1.82v5.4a3.6 3.6 0 0 1 1.48-1.3q.96-.46 2.14-.46m8.293-1.58q-.52 0-.88-.36t-.36-.88.36-.88.88-.36q.5 0 .84.36.36.36.36.88t-.36.88a1.1 1.1 0 0 1-.84.36m.88 1.78V88h-1.82V77.04zm7.622-.18q1.42 0 2.48.62 1.08.62 1.6 1.56v-2h1.84v11.2q0 1.5-.64 2.66a4.53 4.53 0 0 1-1.84 1.84q-1.18.66-2.76.66-2.16 0-3.6-1.02t-1.7-2.78h1.8q.3 1 1.24 1.6.94.62 2.26.62 1.5 0 2.44-.94.96-.94.96-2.64v-2.3q-.54.96-1.6 1.6t-2.48.64q-1.46 0-2.66-.72-1.18-.72-1.86-2.02t-.68-2.96q0-1.68.68-2.94.68-1.28 1.86-1.98 1.2-.7 2.66-.7m4.08 5.64q0-1.24-.5-2.16a3.44 3.44 0 0 0-1.36-1.4q-.84-.5-1.86-.5t-1.86.48-1.34 1.4-.5 2.16q0 1.26.5 2.2.5.92 1.34 1.42.84.48 1.86.48t1.86-.48a3.6 3.6 0 0 0 1.36-1.42q.5-.94.5-2.18m10.356-5.66q1.24 0 2.24.54.999.52 1.56 1.58.58 1.06.58 2.58V88h-1.8v-6.2q0-1.64-.82-2.5-.82-.88-2.24-.88-1.44 0-2.3.9-.84.9-.84 2.62V88h-1.82V73.2h1.82v5.4a3.6 3.6 0 0 1 1.48-1.3q.96-.46 2.14-.46m14.952 3.06v1.54h-7.98V79.9zm2.736 2.58q0-1.68.68-2.94.68-1.28 1.86-1.98 1.2-.7 2.68-.7 1.42 0 2.48.64 1.08.62 1.58 1.54v-2h1.84V93.2h-1.84v-7.22q-.52.92-1.6 1.56t-2.52.64-2.62-.72-1.86-2.02-.68-2.96m9.28.02q0-1.24-.5-2.16a3.44 3.44 0 0 0-1.36-1.4q-.84-.5-1.86-.5t-1.86.48-1.34 1.4-.5 2.16q0 1.26.5 2.2.5.92 1.34 1.42.84.48 1.86.48t1.86-.48a3.6 3.6 0 0 0 1.36-1.42q.5-.94.5-2.18m14.636-5.46V88h-1.82v-1.62q-.52.84-1.46 1.32a4.5 4.5 0 0 1-2.04.46q-1.28 0-2.3-.52a4 4 0 0 1-1.62-1.6q-.58-1.06-.58-2.58v-6.42h1.8v6.18q0 1.62.82 2.5.82.86 2.24.86 1.46 0 2.3-.9t.84-2.62v-6.02zm2.393 5.44q0-1.68.68-2.94.68-1.28 1.86-1.98 1.2-.7 2.66-.7 1.44 0 2.5.62t1.58 1.56v-2h1.84V88h-1.84v-2.04q-.54.96-1.62 1.6-1.06.62-2.48.62-1.461 0-2.64-.72t-1.86-2.02-.68-2.96m9.28.02q0-1.24-.5-2.16a3.45 3.45 0 0 0-1.36-1.4q-.84-.5-1.86-.5t-1.86.48-1.34 1.4-.5 2.16q0 1.26.5 2.2.5.92 1.34 1.42.84.48 1.86.48t1.86-.48a3.6 3.6 0 0 0 1.36-1.42q.5-.94.5-2.18m6.735-9.3V88h-1.82V73.2zm4.042 2.06q-.52 0-.88-.36t-.36-.88.36-.88.88-.36q.5 0 .84.36.36.36.36.88t-.36.88a1.1 1.1 0 0 1-.84.36m.88 1.78V88h-1.82V77.04zm5.322 1.5V85q0 .8.34 1.14.34.32 1.18.32h1.34V88h-1.64q-1.52 0-2.28-.7t-.76-2.3v-6.46h-1.42v-1.5h1.42v-2.76h1.82v2.76h2.86v1.5zm14.505-1.5-6.6 16.12h-1.88l2.16-5.28-4.42-10.84h2.02l3.44 8.88 3.4-8.88zM13.86 104.5q0-1.7.68-2.96a4.9 4.9 0 0 1 1.88-1.98q1.22-.7 2.78-.7 2.02 0 3.32.98 1.32.98 1.74 2.72H22.3a2.8 2.8 0 0 0-1.1-1.58q-.8-.58-2-.58-1.56 0-2.52 1.08-.96 1.06-.96 3.02 0 1.98.96 3.06t2.52 1.08q1.2 0 2-.56t1.1-1.6h1.96q-.44 1.68-1.76 2.7-1.32 1-3.3 1-1.56 0-2.78-.7a4.9 4.9 0 0 1-1.88-1.98q-.68-1.28-.68-3m12.148-.02q0-1.68.68-2.94.681-1.28 1.86-1.98 1.2-.7 2.66-.7 1.44 0 2.5.62t1.58 1.56v-2h1.84V110h-1.84v-2.04q-.54.96-1.62 1.6-1.06.62-2.48.62-1.46 0-2.64-.72-1.179-.72-1.86-2.02-.68-1.3-.68-2.96m9.28.02q0-1.24-.5-2.16a3.44 3.44 0 0 0-1.36-1.4q-.84-.5-1.86-.5t-1.86.48-1.34 1.4-.5 2.16q0 1.26.5 2.2.5.92 1.34 1.42.84.48 1.86.48t1.86-.48a3.6 3.6 0 0 0 1.36-1.42q.5-.94.5-2.18m6.736-3.68a3.5 3.5 0 0 1 1.36-1.46q.9-.52 2.18-.52v1.88h-.48q-3.06 0-3.06 3.32V110h-1.82V99.04h1.82zm15.753 9.36q-1.54 0-2.8-.7a5.1 5.1 0 0 1-1.96-1.98q-.7-1.3-.7-3 0-1.68.72-2.96.74-1.3 2-1.98 1.26-.7 2.82-.7t2.82.7q1.26.68 1.98 1.96.74 1.28.74 2.98t-.76 3a5.15 5.15 0 0 1-2.02 1.98q-1.28.7-2.84.7m0-1.6q.98 0 1.84-.46t1.38-1.38q.54-.92.54-2.24t-.52-2.24-1.36-1.36a3.7 3.7 0 0 0-1.82-.46q-1 0-1.84.46-.82.44-1.32 1.36t-.5 2.24q0 1.34.48 2.26.5.92 1.32 1.38a3.75 3.75 0 0 0 1.8.44m9.833-7.52q.54-.94 1.6-1.56 1.08-.64 2.5-.64 1.46 0 2.64.7a4.9 4.9 0 0 1 1.88 1.98q.68 1.26.68 2.94 0 1.66-.68 2.96t-1.88 2.02q-1.18.72-2.64.72-1.4 0-2.48-.62-1.06-.64-1.62-1.58v7.22h-1.82V99.04h1.82zm7.44 3.42q0-1.24-.5-2.16a3.44 3.44 0 0 0-1.36-1.4q-.84-.48-1.86-.48a3.64 3.64 0 0 0-1.86.5q-.84.48-1.36 1.42-.5.92-.5 2.14 0 1.24.5 2.18a3.77 3.77 0 0 0 1.36 1.42q.86.48 1.86.48 1.02 0 1.86-.48a3.6 3.6 0 0 0 1.36-1.42q.5-.94.5-2.2m6.476-3.94V107q0 .8.34 1.14.34.32 1.18.32h1.34V110h-1.64q-1.521 0-2.28-.7-.76-.7-.76-2.3v-6.46h-1.42v-1.5h1.42v-2.76h1.82v2.76h2.86v1.5zm6.005-3.28q-.52 0-.88-.36t-.36-.88.36-.88.88-.36q.5 0 .84.36.36.36.36.88t-.36.88a1.1 1.1 0 0 1-.84.36m.88 1.78V110h-1.82V99.04zm7.882 11.14q-1.54 0-2.8-.7a5.1 5.1 0 0 1-1.96-1.98q-.7-1.3-.7-3 0-1.68.72-2.96.74-1.3 2-1.98 1.26-.7 2.82-.7t2.82.7q1.26.68 1.98 1.96.74 1.28.74 2.98t-.76 3a5.16 5.16 0 0 1-2.02 1.98q-1.28.7-2.84.7m0-1.6a3.84 3.84 0 0 0 1.84-.46q.86-.46 1.38-1.38.54-.92.54-2.24t-.52-2.24-1.36-1.36a3.7 3.7 0 0 0-1.82-.46q-1 0-1.84.46-.82.44-1.32 1.36t-.5 2.24q0 1.34.48 2.26.5.92 1.32 1.38a3.75 3.75 0 0 0 1.8.44m13.353-9.74q2 0 3.24 1.22 1.24 1.2 1.24 3.48V110h-1.8v-6.2q0-1.64-.82-2.5-.82-.88-2.24-.88-1.44 0-2.3.9-.84.9-.84 2.62V110h-1.82V99.04h1.82v1.56q.54-.84 1.46-1.3a4.6 4.6 0 0 1 2.06-.46m11.333 11.34q-1.26 0-2.26-.42-1-.44-1.58-1.2a3.24 3.24 0 0 1-.64-1.78h1.88q.08.82.76 1.34.7.52 1.82.52 1.04 0 1.64-.46t.6-1.16q0-.72-.64-1.06-.64-.36-1.98-.7a16 16 0 0 1-2-.64 3.8 3.8 0 0 1-1.32-.98q-.54-.66-.54-1.72 0-.84.5-1.54t1.42-1.1q.92-.42 2.1-.42 1.82 0 2.94.92t1.2 2.52h-1.82q-.06-.86-.7-1.38-.621-.52-1.68-.52-.981 0-1.56.42t-.58 1.1q0 .54.34.9.36.34.88.56.54.2 1.48.46 1.179.32 1.92.64.74.3 1.26.92.54.62.56 1.62 0 .9-.5 1.62t-1.42 1.14q-.9.4-2.08.4"/><path stroke="url(#d)" stroke-linejoin="round" stroke-width="3.188" d="m221.656 21.498-5.756-6.01A7.92 7.92 0 0 0 210.142 13a7.9 7.9 0 0 0-5.758 2.489c-3.179 3.319-3.179 8.7 0 12.019a7.903 7.903 0 0 0 11.513 0zm0 0 5.757-6.01a7.9 7.9 0 0 1 11.515 0c3.179 3.32 3.179 8.7 0 12.02a7.903 7.903 0 0 1-11.513 0z"/><rect width="4" height="97" x="187" y="10" fill="url(#e)" rx="2"/><path fill="#fff" d="M205.402 44.248v10.368q0 1.704.888 2.616.888.888 2.496.888 1.632 0 2.52-.888.888-.912.888-2.616V44.248h3.384v10.344q0 2.136-.936 3.624a5.8 5.8 0 0 1-2.472 2.208q-1.536.744-3.432.744-1.872 0-3.408-.744a5.7 5.7 0 0 1-2.4-2.208q-.888-1.488-.888-3.624V44.248zm20.79 3.264q2.376 0 3.84 1.512 1.464 1.488 1.464 4.176V61h-3.36v-7.344q0-1.584-.792-2.424-.792-.864-2.16-.864-1.392 0-2.208.864-.792.84-.792 2.424V61h-3.36V47.704h3.36v1.656a4.56 4.56 0 0 1 1.704-1.344 5.3 5.3 0 0 1 2.304-.504m11.859-4.272V61h-3.36V43.24zm5.024 2.88q-.888 0-1.488-.552a1.93 1.93 0 0 1-.576-1.416q0-.84.576-1.392.6-.576 1.488-.576t1.464.576q.6.552.6 1.392t-.6 1.416q-.576.552-1.464.552m1.656 1.584V61h-3.36V47.704zm19.832-.192q2.448 0 3.936 1.512 1.512 1.488 1.512 4.176V61h-3.36v-7.344q0-1.56-.792-2.376-.792-.84-2.16-.84t-2.184.84q-.792.816-.792 2.376V61h-3.36v-7.344q0-1.56-.792-2.376-.792-.84-2.16-.84-1.392 0-2.208.84-.792.816-.792 2.376V61h-3.36V47.704h3.36v1.608q.648-.84 1.656-1.32 1.032-.48 2.256-.48 1.56 0 2.784.672a4.55 4.55 0 0 1 1.896 1.872q.648-1.152 1.872-1.848a5.43 5.43 0 0 1 2.688-.696m10.34-1.392q-.888 0-1.488-.552a1.93 1.93 0 0 1-.576-1.416q0-.84.576-1.392.6-.576 1.488-.576t1.464.576q.6.552.6 1.392t-.6 1.416q-.576.552-1.464.552m1.656 1.584V61h-3.36V47.704zm7.232 2.76v6.432q0 .672.312.984.336.288 1.104.288h1.56V61h-2.112q-4.248 0-4.248-4.128v-6.408h-1.584v-2.76h1.584v-3.288h3.384v3.288h2.976v2.76zm17.752 3.6q0 .72-.096 1.296h-9.72q.12 1.44 1.008 2.256t2.184.816q1.872 0 2.664-1.608h3.624q-.576 1.92-2.208 3.168-1.632 1.224-4.008 1.224-1.92 0-3.456-.84a6.2 6.2 0 0 1-2.376-2.424q-.84-1.56-.84-3.6 0-2.064.84-3.624a5.86 5.86 0 0 1 2.352-2.4q1.512-.84 3.48-.84 1.896 0 3.384.816a5.63 5.63 0 0 1 2.328 2.328q.84 1.488.84 3.432m-3.48-.96q-.024-1.296-.936-2.064-.912-.792-2.232-.792-1.248 0-2.112.768-.84.744-1.032 2.088zm5.069 1.2q0-2.016.792-3.576.816-1.56 2.208-2.4t3.096-.84a5.55 5.55 0 0 1 2.472.576q1.176.552 1.872 1.488V43.24h3.408V61h-3.408v-1.968q-.624.984-1.752 1.584t-2.616.6a5.7 5.7 0 0 1-3.072-.864q-1.392-.864-2.208-2.424-.792-1.584-.792-3.624m10.464.048q0-1.224-.48-2.088-.48-.888-1.296-1.344a3.4 3.4 0 0 0-1.752-.48q-.936 0-1.728.456t-1.296 1.344q-.48.864-.48 2.064t.48 2.112q.504.888 1.296 1.368.816.48 1.728.48.936 0 1.752-.456.816-.48 1.296-1.344.48-.888.48-2.112M333.852 61l-4.512-5.664V61h-3.36V43.24h3.36v10.104l4.464-5.64h4.368l-5.856 6.672L338.22 61zm22.656-13.488q2.448 0 3.936 1.512 1.512 1.488 1.512 4.176V61h-3.36v-7.344q0-1.56-.792-2.376-.792-.84-2.16-.84t-2.184.84q-.792.816-.792 2.376V61h-3.36v-7.344q0-1.56-.792-2.376-.792-.84-2.16-.84-1.392 0-2.208.84-.792.816-.792 2.376V61h-3.36V47.704h3.36v1.608q.648-.84 1.656-1.32 1.032-.48 2.256-.48 1.56 0 2.784.672a4.55 4.55 0 0 1 1.896 1.872q.648-1.152 1.872-1.848a5.43 5.43 0 0 1 2.688-.696m13.724 13.704q-1.632 0-2.928-.576-1.296-.6-2.064-1.608a4.1 4.1 0 0 1-.816-2.232h3.384q.096.768.744 1.272.672.504 1.656.504.96 0 1.488-.384.552-.384.552-.984 0-.648-.672-.96-.648-.336-2.088-.72-1.488-.36-2.448-.744a4.35 4.35 0 0 1-1.632-1.176q-.672-.792-.672-2.136 0-1.104.624-2.016.648-.912 1.824-1.44 1.2-.528 2.808-.528 2.376 0 3.792 1.2 1.416 1.176 1.56 3.192h-3.216q-.072-.792-.672-1.248-.576-.48-1.56-.48-.912 0-1.416.336-.48.336-.48.936 0 .672.672 1.032.672.336 2.088.696 1.44.36 2.376.744t1.608 1.2q.696.792.72 2.112 0 1.152-.648 2.064-.624.912-1.824 1.44-1.176.504-2.76.504M203.76 75.54V82q0 .8.34 1.14.34.32 1.18.32h1.34V85h-1.64q-1.52 0-2.28-.7t-.76-2.3v-6.46h-1.42v-1.5h1.42v-2.76h1.82v2.76h2.86v1.5zm9.845 9.64q-1.54 0-2.8-.7a5.1 5.1 0 0 1-1.96-1.98q-.7-1.3-.7-3 0-1.68.72-2.96a5 5 0 0 1 2-1.98q1.26-.7 2.82-.7t2.82.7q1.26.68 1.98 1.96.74 1.28.74 2.98t-.76 3a5.15 5.15 0 0 1-2.02 1.98q-1.28.7-2.84.7m0-1.6q.98 0 1.84-.46t1.38-1.38q.54-.92.54-2.24t-.52-2.24-1.36-1.36a3.73 3.73 0 0 0-1.82-.46q-1 0-1.84.46-.82.44-1.32 1.36t-.5 2.24q0 1.34.48 2.26.5.92 1.32 1.38.82.44 1.8.44m12.665-4.1q0-1.68.68-2.94.68-1.28 1.86-1.98 1.2-.7 2.68-.7 1.28 0 2.38.6 1.1.58 1.68 1.54v-5.8h1.84V85h-1.84v-2.06q-.54.98-1.6 1.62-1.06.62-2.48.62-1.46 0-2.66-.72-1.18-.72-1.86-2.02t-.68-2.96m9.28.02q0-1.24-.5-2.16a3.44 3.44 0 0 0-1.36-1.4q-.84-.5-1.86-.5t-1.86.48-1.34 1.4-.5 2.16q0 1.26.5 2.2.5.92 1.34 1.42.84.48 1.86.48t1.86-.48a3.6 3.6 0 0 0 1.36-1.42q.5-.94.5-2.18m6.736-3.68a3.5 3.5 0 0 1 1.36-1.46q.9-.52 2.18-.52v1.88h-.48q-3.06 0-3.06 3.32V85h-1.82V74.04h1.82zm6.581-3.56q-.52 0-.88-.36t-.36-.88.36-.88.88-.36q.5 0 .84.36.36.36.36.88t-.36.88a1.1 1.1 0 0 1-.84.36m.88 1.78V85h-1.82V74.04zm7.182 9.28 3.4-9.28h1.94l-4.3 10.96h-2.12l-4.3-10.96h1.96zm17.131-4.22q0 .52-.06 1.1h-8.76q.1 1.62 1.1 2.54 1.02.9 2.46.9 1.18 0 1.96-.54a2.95 2.95 0 0 0 1.12-1.48h1.96a4.76 4.76 0 0 1-1.76 2.58q-1.32.98-3.28.98-1.56 0-2.8-.7a5 5 0 0 1-1.92-1.98q-.7-1.3-.7-3t.68-2.98a4.7 4.7 0 0 1 1.9-1.96q1.24-.7 2.84-.7 1.56 0 2.76.68t1.84 1.88q.66 1.18.66 2.68m-1.88-.38q0-1.04-.46-1.78a2.9 2.9 0 0 0-1.26-1.14q-.78-.4-1.74-.4-1.38 0-2.36.88-.96.88-1.1 2.44zm8.934.76q0-1.68.68-2.94.68-1.28 1.86-1.98 1.2-.7 2.66-.7 1.44 0 2.5.62t1.58 1.56v-2h1.84V85h-1.84v-2.04q-.54.96-1.62 1.6-1.06.62-2.48.62-1.46 0-2.64-.72t-1.86-2.02-.68-2.96m9.28.02q0-1.24-.5-2.16a3.44 3.44 0 0 0-1.36-1.4q-.84-.5-1.86-.5t-1.86.48-1.34 1.4-.5 2.16q0 1.26.5 2.2.5.92 1.34 1.42.84.48 1.86.48t1.86-.48a3.6 3.6 0 0 0 1.36-1.42q.5-.94.5-2.18m10.256-5.66q2 0 3.24 1.22 1.24 1.2 1.24 3.48V85h-1.8v-6.2q0-1.64-.82-2.5-.82-.88-2.24-.88-1.44 0-2.3.9-.84.9-.84 2.62V85h-1.82V74.04h1.82v1.56q.54-.84 1.46-1.3a4.6 4.6 0 0 1 2.06-.46m6.773 5.64q0-1.68.68-2.94.68-1.28 1.86-1.98 1.2-.7 2.68-.7 1.28 0 2.38.6 1.1.58 1.68 1.54v-5.8h1.84V85h-1.84v-2.06q-.54.98-1.6 1.62-1.06.62-2.48.62a5.07 5.07 0 0 1-2.66-.72q-1.18-.72-1.86-2.02t-.68-2.96m9.28.02q0-1.24-.5-2.16a3.45 3.45 0 0 0-1.36-1.4q-.84-.5-1.86-.5t-1.86.48-1.34 1.4-.5 2.16q0 1.26.5 2.2.5.92 1.34 1.42.84.48 1.86.48t1.86-.48a3.6 3.6 0 0 0 1.36-1.42q.5-.94.5-2.18M205.42 107.18q-1.26 0-2.26-.42-1-.44-1.58-1.2a3.24 3.24 0 0 1-.64-1.78h1.88q.08.82.76 1.34.7.52 1.82.52 1.04 0 1.64-.46t.6-1.16q0-.72-.64-1.06-.64-.36-1.98-.7-1.22-.32-2-.64a3.8 3.8 0 0 1-1.32-.98q-.54-.66-.54-1.72 0-.84.5-1.54t1.42-1.1q.92-.42 2.1-.42 1.82 0 2.94.92t1.2 2.52h-1.82q-.06-.86-.7-1.38-.62-.52-1.68-.52-.98 0-1.56.42t-.58 1.1q0 .54.34.9.36.34.88.56.54.2 1.48.46 1.18.32 1.92.64.74.3 1.26.92.54.62.56 1.62 0 .9-.5 1.62t-1.42 1.14q-.9.4-2.08.4m8.789-9.64V104q0 .8.34 1.14.34.32 1.18.32h1.34V107h-1.64q-1.52 0-2.28-.7t-.76-2.3v-6.46h-1.42v-1.5h1.42v-2.76h1.82v2.76h2.86v1.5zm9.845 9.64q-1.54 0-2.8-.7a5.1 5.1 0 0 1-1.96-1.98q-.7-1.3-.7-3 0-1.68.72-2.96.74-1.3 2-1.98 1.26-.7 2.82-.7t2.82.7q1.26.68 1.98 1.96.74 1.28.74 2.98t-.76 3a5.15 5.15 0 0 1-2.02 1.98q-1.28.7-2.84.7m0-1.6q.98 0 1.84-.46t1.38-1.38q.54-.92.54-2.24t-.52-2.24-1.36-1.36a3.7 3.7 0 0 0-1.82-.46 3.8 3.8 0 0 0-1.84.46q-.819.44-1.32 1.36-.5.92-.5 2.24 0 1.34.48 2.26.501.92 1.32 1.38.82.44 1.8.44m9.833-7.52q.54-.94 1.6-1.56 1.08-.64 2.5-.64 1.461 0 2.64.7a4.9 4.9 0 0 1 1.88 1.98q.68 1.26.68 2.94 0 1.66-.68 2.96a5 5 0 0 1-1.88 2.02q-1.179.72-2.64.72-1.4 0-2.48-.62-1.059-.64-1.62-1.58v7.22h-1.82V96.04h1.82zm7.44 3.42q0-1.24-.5-2.16a3.44 3.44 0 0 0-1.36-1.4q-.84-.48-1.86-.48-.999 0-1.86.5-.84.48-1.36 1.42-.5.92-.5 2.14 0 1.24.5 2.18.52.92 1.36 1.42.861.48 1.86.48 1.02 0 1.86-.48a3.57 3.57 0 0 0 1.36-1.42q.5-.94.5-2.2m8.908 0q0-1.68.68-2.94.68-1.28 1.86-1.98 1.2-.7 2.66-.7 1.44 0 2.5.62t1.58 1.56v-2h1.84V107h-1.84v-2.04q-.54.96-1.62 1.6-1.06.62-2.48.62-1.46 0-2.64-.72t-1.86-2.02-.68-2.96m9.28.02q0-1.24-.5-2.16a3.44 3.44 0 0 0-1.36-1.4q-.84-.5-1.86-.5t-1.86.48-1.34 1.4-.5 2.16q0 1.26.5 2.2.5.92 1.34 1.42.84.48 1.86.48t1.86-.48a3.6 3.6 0 0 0 1.36-1.42q.5-.94.5-2.18m10.256-5.66q2 0 3.24 1.22 1.24 1.2 1.24 3.48V107h-1.8v-6.2q0-1.64-.82-2.5-.82-.88-2.24-.88-1.44 0-2.3.9-.84.9-.84 2.62V107h-1.82V96.04h1.82v1.56q.54-.84 1.46-1.3a4.6 4.6 0 0 1 2.06-.46m16.893.2-6.6 16.12h-1.88l2.16-5.28-4.42-10.84h2.02l3.44 8.88 3.4-8.88zm16.429 0-3.42 10.96h-1.88l-2.64-8.7-2.64 8.7h-1.88l-3.44-10.96h1.86l2.52 9.2 2.72-9.2h1.86l2.66 9.22 2.48-9.22zm7.246-.2q1.24 0 2.24.54 1 .52 1.56 1.58.58 1.06.58 2.58V107h-1.8v-6.2q0-1.64-.82-2.5-.82-.88-2.24-.88-1.44 0-2.3.9-.84.9-.84 2.62V107h-1.82V92.2h1.82v5.4q.54-.84 1.48-1.3.96-.46 2.14-.46m17.353 5.26q0 .52-.06 1.1h-8.76q.1 1.62 1.1 2.54 1.02.9 2.46.9 1.18 0 1.96-.54a2.94 2.94 0 0 0 1.12-1.48h1.96a4.76 4.76 0 0 1-1.76 2.58q-1.32.98-3.28.98-1.56 0-2.8-.7a5 5 0 0 1-1.92-1.98q-.7-1.3-.7-3t.68-2.98a4.73 4.73 0 0 1 1.9-1.96q1.24-.7 2.84-.7 1.56 0 2.76.68a4.6 4.6 0 0 1 1.84 1.88q.66 1.18.66 2.68m-1.88-.38q0-1.04-.46-1.78a2.9 2.9 0 0 0-1.26-1.14q-.78-.4-1.74-.4-1.38 0-2.36.88-.96.88-1.1 2.44zm6.103-2.9a3.5 3.5 0 0 1 1.36-1.46q.9-.52 2.18-.52v1.88h-.48q-3.06 0-3.06 3.32V107h-1.82V96.04h1.82zm15.641 3.28q0 .52-.06 1.1h-8.76q.1 1.62 1.1 2.54 1.02.9 2.46.9 1.18 0 1.96-.54a2.95 2.95 0 0 0 1.12-1.48h1.96a4.77 4.77 0 0 1-1.76 2.58q-1.32.98-3.28.98-1.56 0-2.8-.7a5 5 0 0 1-1.92-1.98q-.7-1.3-.7-3t.68-2.98a4.7 4.7 0 0 1 1.9-1.96q1.24-.7 2.84-.7 1.56 0 2.76.68t1.84 1.88q.66 1.18.66 2.68m-1.88-.38q0-1.04-.46-1.78a2.9 2.9 0 0 0-1.26-1.14q-.78-.4-1.74-.4-1.38 0-2.36.88-.96.88-1.1 2.44z"/><rect width="4" height="106" x="424" y="3" fill="url(#f)" rx="2"/><path fill="#fff" d="M452.984 61h-3.36l-7.608-11.496V61h-3.36V44.224h3.36l7.608 11.52v-11.52h3.36zm9.224.216q-1.92 0-3.456-.84a6.3 6.3 0 0 1-2.424-2.424q-.864-1.56-.864-3.6t.888-3.6a6.25 6.25 0 0 1 2.472-2.4q1.56-.864 3.48-.864t3.48.864a6.1 6.1 0 0 1 2.448 2.4q.912 1.56.912 3.6t-.936 3.6a6.4 6.4 0 0 1-2.496 2.424q-1.56.84-3.504.84m0-2.928q.912 0 1.704-.432.816-.456 1.296-1.344t.48-2.16q0-1.896-1.008-2.904-.984-1.032-2.424-1.032t-2.424 1.032q-.96 1.008-.96 2.904t.936 2.928q.96 1.008 2.4 1.008m20.208 2.928q-1.632 0-2.928-.576-1.296-.6-2.064-1.608a4.1 4.1 0 0 1-.816-2.232h3.384q.096.768.744 1.272.672.504 1.656.504.96 0 1.488-.384.552-.384.552-.984 0-.648-.672-.96-.648-.336-2.088-.72-1.488-.36-2.448-.744a4.35 4.35 0 0 1-1.632-1.176q-.672-.792-.672-2.136 0-1.104.624-2.016.648-.912 1.824-1.44 1.2-.528 2.808-.528 2.376 0 3.792 1.2 1.416 1.176 1.56 3.192h-3.216q-.072-.792-.672-1.248-.576-.48-1.56-.48-.912 0-1.416.336-.48.336-.48.936 0 .672.672 1.032.672.336 2.088.696 1.44.36 2.376.744t1.608 1.2q.696.792.72 2.112 0 1.152-.648 2.064-.624.912-1.824 1.44-1.176.504-2.76.504m20.35-7.152q0 .72-.096 1.296h-9.72q.12 1.44 1.008 2.256t2.184.816q1.872 0 2.664-1.608h3.624q-.576 1.92-2.208 3.168-1.632 1.224-4.008 1.224-1.92 0-3.456-.84a6.2 6.2 0 0 1-2.376-2.424q-.84-1.56-.84-3.6 0-2.064.84-3.624a5.86 5.86 0 0 1 2.352-2.4q1.512-.84 3.48-.84 1.896 0 3.384.816a5.63 5.63 0 0 1 2.328 2.328q.84 1.488.84 3.432m-3.48-.96q-.024-1.296-.936-2.064-.912-.792-2.232-.792-1.248 0-2.112.768-.84.744-1.032 2.088zm5.068 1.248q0-2.064.841-3.6.84-1.56 2.328-2.4 1.488-.864 3.408-.864 2.472 0 4.08 1.248 1.632 1.224 2.184 3.456h-3.624q-.288-.864-.984-1.344-.672-.504-1.68-.504-1.44 0-2.28 1.056-.84 1.032-.84 2.952 0 1.896.84 2.952.84 1.032 2.28 1.032 2.04 0 2.664-1.824h3.624q-.552 2.16-2.184 3.432t-4.08 1.272q-1.92 0-3.408-.84a6.1 6.1 0 0 1-2.328-2.4q-.84-1.56-.841-3.624m27.854-6.648V61h-3.384v-1.68q-.648.864-1.704 1.368-1.032.48-2.256.48-1.56 0-2.76-.648-1.2-.672-1.896-1.944-.672-1.296-.672-3.072v-7.8h3.36v7.32q0 1.584.792 2.448.792.84 2.16.84 1.392 0 2.184-.84.792-.864.792-2.448v-7.32zm6.675 2.064a4.76 4.76 0 0 1 1.68-1.656q1.056-.6 2.4-.6v3.528h-.888q-1.584 0-2.4.744-.792.744-.792 2.592V61h-3.36V47.704h3.36zm8.047-3.648q-.888 0-1.488-.552a1.93 1.93 0 0 1-.576-1.416q0-.84.576-1.392.6-.576 1.488-.576t1.464.576q.6.552.6 1.392t-.6 1.416q-.576.552-1.464.552m1.656 1.584V61h-3.36V47.704zm7.232 2.76v6.432q0 .672.312.984.336.288 1.104.288h1.56V61h-2.112q-4.248 0-4.248-4.128v-6.408h-1.584v-2.76h1.584v-3.288h3.384v3.288h2.976v2.76zm18.113-2.76-8.232 19.584h-3.576l2.88-6.624-5.328-12.96h3.768l3.432 9.288 3.48-9.288zm-136.139 32.6q0-2.016.792-3.576.816-1.56 2.208-2.4t3.096-.84a5.55 5.55 0 0 1 2.472.576q1.176.552 1.872 1.488V69.24h3.408V87h-3.408v-1.968q-.624.984-1.752 1.584t-2.616.6a5.7 5.7 0 0 1-3.072-.864q-1.392-.864-2.208-2.424-.792-1.584-.792-3.624m10.464.048q0-1.224-.48-2.088-.48-.888-1.296-1.344a3.4 3.4 0 0 0-1.752-.48q-.936 0-1.728.456t-1.296 1.344q-.48.864-.48 2.064t.48 2.112q.504.888 1.296 1.368.816.48 1.728.48.936 0 1.752-.456.816-.48 1.296-1.344.48-.888.48-2.112m19.026-.288q0 .72-.096 1.296h-9.72q.12 1.44 1.008 2.256t2.184.816q1.872 0 2.664-1.608h3.624q-.576 1.92-2.208 3.168-1.632 1.224-4.008 1.224-1.92 0-3.456-.84a6.2 6.2 0 0 1-2.376-2.424q-.84-1.56-.84-3.6 0-2.064.84-3.624a5.86 5.86 0 0 1 2.352-2.4q1.512-.84 3.48-.84 1.896 0 3.384.816a5.63 5.63 0 0 1 2.328 2.328q.84 1.488.84 3.432m-3.48-.96q-.024-1.296-.936-2.064-.912-.792-2.232-.792-1.248 0-2.112.768-.84.744-1.032 2.088zm9.292-3.48q.648-.912 1.776-1.512 1.152-.624 2.616-.624 1.704 0 3.072.84 1.392.84 2.184 2.4.816 1.536.816 3.576t-.816 3.624q-.792 1.56-2.184 2.424-1.368.864-3.072.864-1.464 0-2.592-.6a5.6 5.6 0 0 1-1.8-1.512v8.232h-3.36V73.704h3.36zm7.032 4.68q0-1.2-.504-2.064-.48-.888-1.296-1.344a3.4 3.4 0 0 0-1.728-.456q-.912 0-1.728.48-.792.456-1.296 1.344-.48.888-.48 2.088t.48 2.088q.504.888 1.296 1.368a3.5 3.5 0 0 0 1.728.456q.936 0 1.728-.48a3.45 3.45 0 0 0 1.296-1.368q.504-.888.504-2.112m11.778 6.912q-1.92 0-3.456-.84a6.3 6.3 0 0 1-2.424-2.424q-.864-1.56-.864-3.6t.888-3.6a6.25 6.25 0 0 1 2.472-2.4q1.56-.864 3.48-.864t3.48.864a6.1 6.1 0 0 1 2.448 2.4q.912 1.56.912 3.6t-.936 3.6a6.4 6.4 0 0 1-2.496 2.424q-1.56.84-3.504.84m0-2.928q.912 0 1.704-.432.816-.456 1.296-1.344t.48-2.16q0-1.896-1.008-2.904-.984-1.032-2.424-1.032t-2.424 1.032q-.96 1.008-.96 2.904t.936 2.928q.96 1.008 2.4 1.008m14.488 2.928q-1.632 0-2.928-.576-1.296-.6-2.064-1.608a4.1 4.1 0 0 1-.816-2.232h3.384q.096.768.744 1.272.672.504 1.656.504.96 0 1.488-.384.552-.384.552-.984 0-.648-.672-.96-.648-.336-2.088-.72-1.488-.36-2.448-.744a4.35 4.35 0 0 1-1.632-1.176q-.672-.792-.672-2.136 0-1.104.624-2.016.648-.912 1.824-1.44 1.2-.528 2.808-.528 2.376 0 3.792 1.2 1.416 1.176 1.56 3.192h-3.216q-.072-.792-.672-1.248-.576-.48-1.56-.48-.912 0-1.416.336-.48.336-.48.936 0 .672.672 1.032.672.336 2.088.696 1.44.36 2.376.744t1.608 1.2q.696.792.72 2.112 0 1.152-.648 2.064-.624.912-1.824 1.44-1.176.504-2.76.504m9.695-15.096q-.888 0-1.488-.552a1.93 1.93 0 0 1-.576-1.416q0-.84.576-1.392.6-.576 1.488-.576t1.464.576q.6.552.6 1.392t-.6 1.416q-.576.552-1.464.552m1.656 1.584V87h-3.36V73.704zm7.231 2.76v6.432q0 .672.312.984.336.288 1.104.288h1.56V87h-2.112q-4.248 0-4.248-4.128v-6.408h-1.584v-2.76h1.584v-3.288h3.384v3.288h2.976v2.76zM443.32 109.18q-1.54 0-2.8-.7a5.1 5.1 0 0 1-1.96-1.98q-.7-1.3-.7-3 0-1.68.72-2.96a5 5 0 0 1 2-1.98q1.26-.7 2.82-.7t2.82.7q1.26.68 1.98 1.96.74 1.28.74 2.98t-.76 3a5.15 5.15 0 0 1-2.02 1.98q-1.28.7-2.84.7m0-1.6a3.84 3.84 0 0 0 1.84-.46q.86-.46 1.38-1.38.54-.92.54-2.24t-.52-2.24-1.36-1.36a3.73 3.73 0 0 0-1.82-.46q-1 0-1.84.46-.82.44-1.32 1.36t-.5 2.24q0 1.34.48 2.26.5.92 1.32 1.38.82.44 1.8.44m13.353-9.74q2 0 3.24 1.22 1.24 1.2 1.24 3.48V109h-1.8v-6.2q0-1.64-.82-2.5-.82-.88-2.24-.88-1.44 0-2.3.9-.84.9-.84 2.62V109h-1.82V98.04h1.82v1.56a3.63 3.63 0 0 1 1.46-1.3 4.6 4.6 0 0 1 2.06-.46m12.105 5.64q0-1.68.68-2.94.68-1.28 1.86-1.98 1.2-.7 2.66-.7 1.44 0 2.5.62t1.58 1.56v-2h1.84V109h-1.84v-2.04q-.54.96-1.62 1.6-1.06.62-2.48.62-1.46 0-2.64-.72t-1.86-2.02-.68-2.96m9.28.02q0-1.24-.5-2.16a3.44 3.44 0 0 0-1.36-1.4q-.84-.5-1.86-.5t-1.86.48-1.34 1.4-.5 2.16q0 1.26.5 2.2.5.92 1.34 1.42.84.48 1.86.48t1.86-.48a3.6 3.6 0 0 0 1.36-1.42q.5-.94.5-2.18m10.256-5.66q2 0 3.24 1.22 1.24 1.2 1.24 3.48V109h-1.8v-6.2q0-1.64-.82-2.5-.82-.88-2.24-.88-1.44 0-2.3.9-.84.9-.84 2.62V109h-1.82V98.04h1.82v1.56q.54-.84 1.46-1.3a4.6 4.6 0 0 1 2.06-.46m16.893.2-6.6 16.12h-1.88l2.16-5.28-4.42-10.84h2.02l3.44 8.88 3.4-8.88zm8.981 2.04q.56-.98 1.64-1.6t2.46-.62q1.48 0 2.66.7t1.86 1.98q.68 1.26.68 2.94 0 1.66-.68 2.96a5 5 0 0 1-1.88 2.02q-1.18.72-2.64.72-1.42 0-2.5-.62-1.06-.62-1.6-1.58V109h-1.82V94.2h1.82zm7.44 3.4q0-1.24-.5-2.16a3.44 3.44 0 0 0-1.36-1.4q-.84-.48-1.86-.48-1 0-1.86.5-.84.48-1.36 1.42-.5.92-.5 2.14 0 1.24.5 2.18.52.92 1.36 1.42.86.48 1.86.48 1.02 0 1.86-.48a3.6 3.6 0 0 0 1.36-1.42q.5-.94.5-2.2m9.036 5.7q-1.54 0-2.8-.7a5.1 5.1 0 0 1-1.96-1.98q-.7-1.3-.7-3 0-1.68.72-2.96a5 5 0 0 1 2-1.98q1.26-.7 2.82-.7t2.82.7q1.26.68 1.98 1.96.74 1.28.74 2.98t-.76 3a5.16 5.16 0 0 1-2.02 1.98q-1.28.7-2.84.7m0-1.6q.98 0 1.84-.46t1.38-1.38q.54-.92.54-2.24t-.52-2.24-1.36-1.36a3.73 3.73 0 0 0-1.82-.46q-1 0-1.84.46-.82.44-1.32 1.36t-.5 2.24q0 1.34.48 2.26.5.92 1.32 1.38.819.44 1.8.44m12.793 1.6q-1.54 0-2.8-.7a5.1 5.1 0 0 1-1.96-1.98q-.7-1.3-.7-3 0-1.68.72-2.96a5 5 0 0 1 2-1.98q1.26-.7 2.82-.7t2.82.7q1.26.68 1.98 1.96.74 1.28.74 2.98t-.76 3a5.16 5.16 0 0 1-2.02 1.98q-1.28.7-2.84.7m0-1.6q.98 0 1.84-.46t1.38-1.38q.54-.92.54-2.24t-.52-2.24-1.36-1.36a3.73 3.73 0 0 0-1.82-.46q-1 0-1.84.46-.82.44-1.32 1.36t-.5 2.24q0 1.34.48 2.26.5.92 1.32 1.38.819.44 1.8.44M557.59 109l-4.3-4.84V109h-1.82V94.2h1.82v8.7l4.22-4.86h2.54l-5.16 5.46 5.18 5.5zm5.113-12.74q-.52 0-.88-.36t-.36-.88.36-.88.88-.36q.5 0 .84.36.36.36.36.88t-.36.88a1.1 1.1 0 0 1-.84.36m.88 1.78V109h-1.82V98.04zm8.442-.2q2 0 3.24 1.22 1.24 1.2 1.24 3.48V109h-1.8v-6.2q0-1.64-.82-2.5-.82-.88-2.24-.88-1.44 0-2.3.9-.84.9-.84 2.62V109h-1.82V98.04h1.82v1.56q.54-.84 1.46-1.3a4.6 4.6 0 0 1 2.06-.46m11.973.02q1.42 0 2.48.62 1.08.62 1.6 1.56v-2h1.84v11.2q0 1.5-.64 2.66a4.53 4.53 0 0 1-1.84 1.84q-1.18.66-2.76.66-2.16 0-3.6-1.02t-1.7-2.78h1.8q.3 1 1.24 1.6.94.62 2.26.62 1.5 0 2.44-.94.96-.94.96-2.64v-2.3q-.54.96-1.6 1.6t-2.48.64a5.07 5.07 0 0 1-2.66-.72q-1.18-.72-1.86-2.02t-.68-2.96q0-1.68.68-2.94.68-1.28 1.86-1.98a5.2 5.2 0 0 1 2.66-.7m4.08 5.64q0-1.24-.5-2.16a3.45 3.45 0 0 0-1.36-1.4q-.84-.5-1.86-.5t-1.86.48-1.34 1.4-.5 2.16q0 1.26.5 2.2.5.92 1.34 1.42.84.48 1.86.48t1.86-.48a3.6 3.6 0 0 0 1.36-1.42q.5-.94.5-2.18"/><path fill="url(#g)" fill-rule="evenodd" d="M451 7a3 3 0 0 1 3 3 1.5 1.5 0 0 0 3 0 6 6 0 1 0-12 0v4.5h-3a3 3 0 0 0-3 3V31a3 3 0 0 0 3 3h18a3 3 0 0 0 3-3V17.5a3 3 0 0 0-3-3h-12V10a3 3 0 0 1 3-3m-9 10.5h18V31h-18z" clip-rule="evenodd"/><rect width="4" height="109" x="302" y="151" fill="url(#h)" rx="2"/><path fill="#fff" d="M317.328 211.208q2.304-1.92 3.672-3.192a15.2 15.2 0 0 0 2.28-2.688q.912-1.392.912-2.736 0-1.224-.576-1.92t-1.776-.696-1.848.816q-.648.792-.672 2.184h-3.264q.096-2.88 1.704-4.368 1.632-1.488 4.128-1.488 2.736 0 4.2 1.464 1.464 1.44 1.464 3.816 0 1.872-1.008 3.576a14.4 14.4 0 0 1-2.304 2.976q-1.296 1.248-3.384 3.024h7.08v2.784H316.08v-2.496zm12.581.384v-2.64l7.848-11.232h3.912v10.944h2.112v2.928h-2.112V215h-3.36v-3.408zm8.616-10.272-4.92 7.344h4.92zm16.779-9.048-6.48 27.072h-3.288l6.48-27.072zm13.424 7.776L362.344 215h-3.408l6.432-14.568h-8.208v-2.88h11.568zm7.251 8.304q0-2.064.841-3.6.84-1.56 2.328-2.4 1.488-.864 3.408-.864 2.472 0 4.08 1.248 1.632 1.224 2.184 3.456h-3.624q-.288-.864-.984-1.344-.672-.504-1.68-.504-1.44 0-2.28 1.056-.84 1.032-.84 2.952 0 1.896.84 2.952.84 1.032 2.28 1.032 2.04 0 2.664-1.824h3.624q-.552 2.16-2.184 3.432t-4.08 1.272q-1.92 0-3.408-.84a6.1 6.1 0 0 1-2.328-2.4q-.84-1.56-.841-3.624m27.854-6.648V215h-3.384v-1.68q-.648.864-1.704 1.368-1.032.48-2.256.48-1.56 0-2.76-.648-1.2-.672-1.896-1.944-.672-1.296-.672-3.072v-7.8h3.36v7.32q0 1.584.792 2.448.792.84 2.16.84 1.392 0 2.184-.84.792-.864.792-2.448v-7.32zm8.403 13.512q-1.632 0-2.928-.576-1.296-.6-2.064-1.608a4.1 4.1 0 0 1-.816-2.232h3.384q.096.768.744 1.272.672.504 1.656.504.96 0 1.488-.384.552-.384.552-.984 0-.648-.672-.96-.648-.336-2.088-.72-1.488-.36-2.448-.744a4.35 4.35 0 0 1-1.632-1.176q-.672-.792-.672-2.136 0-1.104.624-2.016.648-.912 1.824-1.44 1.2-.528 2.808-.528 2.376 0 3.792 1.2 1.416 1.176 1.56 3.192h-3.216q-.072-.792-.672-1.248-.576-.48-1.56-.48-.912 0-1.416.336-.48.336-.48.936 0 .672.672 1.032.672.336 2.088.696 1.44.36 2.376.744t1.608 1.2q.696.792.72 2.112 0 1.152-.648 2.064-.624.912-1.824 1.44-1.176.504-2.76.504m11.902-10.752v6.432q0 .672.312.984.336.288 1.104.288h1.56V215h-2.112q-4.248 0-4.248-4.128v-6.408h-1.584v-2.76h1.584v-3.288h3.384v3.288h2.976v2.76zm11.297 10.752q-1.92 0-3.456-.84a6.3 6.3 0 0 1-2.424-2.424q-.864-1.56-.864-3.6t.888-3.6a6.25 6.25 0 0 1 2.472-2.4q1.56-.864 3.48-.864t3.48.864a6.1 6.1 0 0 1 2.448 2.4q.912 1.56.912 3.6t-.936 3.6a6.4 6.4 0 0 1-2.496 2.424q-1.56.84-3.504.84m0-2.928q.912 0 1.704-.432.816-.456 1.296-1.344t.48-2.16q0-1.896-1.008-2.904-.984-1.032-2.424-1.032t-2.424 1.032q-.96 1.008-.96 2.904t.936 2.928q.96 1.008 2.4 1.008m25.913-10.776q2.448 0 3.936 1.512 1.512 1.488 1.512 4.176v7.8h-3.36v-7.344q0-1.56-.792-2.376-.792-.84-2.16-.84t-2.184.84q-.792.816-.792 2.376V215h-3.36v-7.344q0-1.56-.792-2.376-.792-.84-2.16-.84-1.392 0-2.208.84-.792.816-.792 2.376V215h-3.36v-13.296h3.36v1.608q.648-.84 1.656-1.32 1.032-.48 2.256-.48 1.56 0 2.784.672a4.55 4.55 0 0 1 1.896 1.872q.648-1.152 1.872-1.848a5.43 5.43 0 0 1 2.688-.696m20.996 6.552q0 .72-.096 1.296h-9.72q.12 1.44 1.008 2.256t2.184.816q1.872 0 2.664-1.608h3.624q-.576 1.92-2.208 3.168-1.632 1.224-4.008 1.224-1.92 0-3.456-.84a6.2 6.2 0 0 1-2.376-2.424q-.84-1.56-.84-3.6 0-2.064.84-3.624a5.86 5.86 0 0 1 2.352-2.4q1.512-.84 3.48-.84 1.896 0 3.384.816a5.63 5.63 0 0 1 2.328 2.328q.84 1.488.84 3.432m-3.48-.96q-.024-1.296-.936-2.064-.912-.792-2.232-.792-1.248 0-2.112.768-.84.744-1.032 2.088zm9.293-3.336a4.76 4.76 0 0 1 1.68-1.656q1.056-.6 2.4-.6v3.528h-.888q-1.584 0-2.4.744-.792.744-.792 2.592V215h-3.36v-13.296h3.36zm17.15 11.448q-1.632 0-2.928-.576-1.296-.6-2.064-1.608a4.1 4.1 0 0 1-.816-2.232h3.384q.096.768.744 1.272.672.504 1.656.504.96 0 1.488-.384.552-.384.552-.984 0-.648-.672-.96-.648-.336-2.089-.72-1.487-.36-2.447-.744a4.35 4.35 0 0 1-1.632-1.176q-.672-.792-.672-2.136 0-1.104.624-2.016.648-.912 1.824-1.44 1.2-.528 2.808-.528 2.376 0 3.792 1.2 1.416 1.176 1.56 3.192h-3.216q-.072-.792-.672-1.248-.576-.48-1.56-.48-.912 0-1.416.336-.48.336-.48.936 0 .672.672 1.032.672.336 2.088.696 1.44.36 2.376.744t1.608 1.2q.696.792.72 2.112 0 1.152-.648 2.064-.624.912-1.824 1.44-1.176.504-2.76.504m20.542-13.512V215h-3.384v-1.68q-.648.864-1.704 1.368-1.032.48-2.256.48-1.56 0-2.76-.648-1.2-.672-1.896-1.944-.672-1.296-.672-3.072v-7.8h3.36v7.32q0 1.584.792 2.448.792.84 2.16.84 1.392 0 2.184-.84.792-.864.792-2.448v-7.32zm6.675 1.92q.648-.912 1.776-1.512 1.152-.624 2.616-.624 1.704 0 3.072.84 1.392.84 2.184 2.4.816 1.536.816 3.576t-.816 3.624q-.792 1.56-2.184 2.424-1.368.864-3.072.864-1.464 0-2.592-.6a5.6 5.6 0 0 1-1.8-1.512v8.232h-3.36v-19.632h3.36zm7.032 4.68q0-1.2-.504-2.064-.48-.888-1.296-1.344a3.4 3.4 0 0 0-1.728-.456q-.912 0-1.728.48-.792.456-1.296 1.344-.48.888-.48 2.088t.48 2.088q.504.888 1.296 1.368a3.5 3.5 0 0 0 1.728.456q.936 0 1.728-.48a3.45 3.45 0 0 0 1.296-1.368q.504-.888.504-2.112m9.233-4.68q.648-.912 1.776-1.512 1.152-.624 2.616-.624 1.704 0 3.072.84 1.392.84 2.184 2.4.816 1.536.816 3.576t-.816 3.624q-.792 1.56-2.184 2.424-1.368.864-3.072.864-1.464 0-2.592-.6a5.6 5.6 0 0 1-1.8-1.512v8.232h-3.36v-19.632h3.36zm7.032 4.68q0-1.2-.504-2.064-.48-.888-1.296-1.344a3.4 3.4 0 0 0-1.728-.456q-.912 0-1.728.48-.792.456-1.296 1.344-.48.888-.48 2.088t.48 2.088q.504.888 1.296 1.368a3.5 3.5 0 0 0 1.728.456q.936 0 1.728-.48a3.45 3.45 0 0 0 1.296-1.368q.504-.888.504-2.112m11.778 6.912q-1.92 0-3.456-.84a6.3 6.3 0 0 1-2.424-2.424q-.864-1.56-.864-3.6t.888-3.6a6.25 6.25 0 0 1 2.472-2.4q1.56-.864 3.48-.864t3.48.864a6.1 6.1 0 0 1 2.448 2.4q.912 1.56.912 3.6t-.936 3.6a6.4 6.4 0 0 1-2.496 2.424q-1.56.84-3.504.84m0-2.928q.912 0 1.704-.432.816-.456 1.296-1.344t.48-2.16q0-1.896-1.008-2.904-.984-1.032-2.424-1.032t-2.424 1.032q-.96 1.008-.96 2.904t.936 2.928q.96 1.008 2.4 1.008m12.761-8.52a4.76 4.76 0 0 1 1.68-1.656q1.056-.6 2.4-.6v3.528h-.888q-1.584 0-2.4.744-.792.744-.792 2.592V215H577v-13.296h3.36zm10.255.696v6.432q0 .672.312.984.336.288 1.104.288h1.56V215h-2.112q-4.248 0-4.248-4.128v-6.408h-1.584v-2.76h1.584v-3.288h3.384v3.288h2.976v2.76zM320 228.54h-2.3V238h-1.82v-9.46h-1.42v-1.5h1.42v-.78q0-1.84.94-2.68.96-.86 3.06-.86v1.52q-1.2 0-1.7.48-.48.46-.48 1.54v.78h2.3zm6.902 9.64q-1.54 0-2.8-.7a5.1 5.1 0 0 1-1.96-1.98q-.7-1.3-.7-3 0-1.68.72-2.96a5 5 0 0 1 2-1.98q1.26-.7 2.82-.7t2.82.7q1.26.68 1.98 1.96.74 1.28.74 2.98t-.76 3a5.15 5.15 0 0 1-2.02 1.98q-1.28.7-2.84.7m0-1.6a3.84 3.84 0 0 0 1.84-.46q.86-.46 1.38-1.38.54-.92.54-2.24t-.52-2.24-1.36-1.36a3.7 3.7 0 0 0-1.82-.46q-1 0-1.84.46-.82.44-1.32 1.36t-.5 2.24q0 1.34.48 2.26.5.92 1.32 1.38.82.44 1.8.44m9.833-7.76a3.5 3.5 0 0 1 1.36-1.46q.9-.52 2.18-.52v1.88h-.48q-3.06 0-3.06 3.32V238h-1.82v-10.96h1.82zm10.293 3.66q0-1.68.68-2.94.68-1.28 1.86-1.98 1.2-.7 2.68-.7 1.28 0 2.38.6 1.1.58 1.68 1.54v-5.8h1.84V238h-1.84v-2.06q-.54.98-1.6 1.62-1.06.62-2.48.62-1.46 0-2.66-.72-1.18-.72-1.86-2.02t-.68-2.96m9.28.02q0-1.24-.5-2.16a3.44 3.44 0 0 0-1.36-1.4q-.84-.5-1.86-.5t-1.86.48-1.34 1.4-.5 2.16q0 1.26.5 2.2.5.92 1.34 1.42.84.48 1.86.48t1.86-.48a3.6 3.6 0 0 0 1.36-1.42q.5-.94.5-2.18m14.916-.4q0 .52-.06 1.1h-8.76q.1 1.62 1.1 2.54 1.02.9 2.46.9 1.18 0 1.96-.54a2.95 2.95 0 0 0 1.12-1.48h1.96a4.77 4.77 0 0 1-1.76 2.58q-1.32.98-3.28.98-1.56 0-2.8-.7a5 5 0 0 1-1.92-1.98q-.7-1.3-.7-3t.68-2.98a4.7 4.7 0 0 1 1.9-1.96q1.24-.7 2.84-.7 1.56 0 2.76.68t1.84 1.88q.66 1.18.66 2.68m-1.88-.38q0-1.04-.46-1.78a2.9 2.9 0 0 0-1.26-1.14q-.78-.4-1.74-.4-1.38 0-2.36.88-.96.88-1.1 2.44zm3.602.76q0-1.68.68-2.94.68-1.28 1.86-1.98 1.2-.7 2.68-.7 1.28 0 2.38.6 1.1.58 1.68 1.54v-5.8h1.84V238h-1.84v-2.06q-.54.98-1.6 1.62-1.06.62-2.48.62-1.46 0-2.66-.72-1.18-.72-1.86-2.02t-.68-2.96m9.28.02q0-1.24-.5-2.16a3.44 3.44 0 0 0-1.36-1.4q-.84-.5-1.86-.5t-1.86.48-1.34 1.4-.5 2.16q0 1.26.5 2.2.5.92 1.34 1.42.84.48 1.86.48t1.86-.48a3.6 3.6 0 0 0 1.36-1.42q.5-.94.5-2.18m5.856-7.24q-.52 0-.88-.36t-.36-.88.36-.88.88-.36q.5 0 .84.36.36.36.36.88t-.36.88a1.1 1.1 0 0 1-.84.36m.88 1.78V238h-1.82v-10.96zm2.421 5.46q0-1.7.68-2.96a4.9 4.9 0 0 1 1.88-1.98q1.22-.7 2.78-.7 2.02 0 3.32.98 1.32.98 1.74 2.72h-1.96a2.8 2.8 0 0 0-1.1-1.58q-.8-.58-2-.58-1.56 0-2.52 1.08-.96 1.06-.96 3.02 0 1.98.96 3.06t2.52 1.08q1.2 0 2-.56t1.1-1.6h1.96q-.44 1.68-1.76 2.7-1.32 1-3.3 1-1.56 0-2.78-.7a4.9 4.9 0 0 1-1.88-1.98q-.68-1.28-.68-3m12.149-.02q0-1.68.68-2.94.68-1.28 1.86-1.98a5.2 5.2 0 0 1 2.66-.7q1.44 0 2.5.62t1.58 1.56v-2h1.84V238h-1.84v-2.04q-.54.96-1.62 1.6-1.06.62-2.48.62-1.46 0-2.64-.72t-1.86-2.02-.68-2.96m9.28.02q0-1.24-.5-2.16a3.44 3.44 0 0 0-1.36-1.4q-.84-.5-1.86-.5t-1.86.48-1.34 1.4-.5 2.16q0 1.26.5 2.2.5.92 1.34 1.42.84.48 1.86.48t1.86-.48a3.6 3.6 0 0 0 1.36-1.42q.5-.94.5-2.18m7.136-3.96V235q0 .8.34 1.14.34.32 1.179.32h1.341V238h-1.64q-1.521 0-2.28-.7-.76-.7-.76-2.3v-6.46h-1.42v-1.5h1.42v-2.76h1.82v2.76h2.86v1.5zm15.065 3.56q0 .52-.06 1.1h-8.76q.1 1.62 1.1 2.54 1.02.9 2.46.9 1.18 0 1.96-.54a2.95 2.95 0 0 0 1.12-1.48h1.96a4.77 4.77 0 0 1-1.76 2.58q-1.32.98-3.28.98-1.56 0-2.8-.7a5 5 0 0 1-1.92-1.98q-.7-1.3-.7-3t.68-2.98a4.7 4.7 0 0 1 1.9-1.96q1.24-.7 2.84-.7 1.56 0 2.76.68t1.84 1.88q.66 1.18.66 2.68m-1.88-.38q0-1.04-.46-1.78a2.9 2.9 0 0 0-1.26-1.14q-.78-.4-1.74-.4-1.38 0-2.36.88-.96.88-1.1 2.44zm3.602.76q0-1.68.68-2.94.68-1.28 1.86-1.98 1.2-.7 2.68-.7 1.28 0 2.38.6 1.1.58 1.68 1.54v-5.8h1.84V238h-1.84v-2.06q-.54.98-1.6 1.62-1.06.62-2.48.62-1.46 0-2.66-.72-1.18-.72-1.86-2.02t-.68-2.96m9.28.02q0-1.24-.5-2.16a3.44 3.44 0 0 0-1.36-1.4q-.84-.5-1.86-.5t-1.86.48-1.34 1.4-.5 2.16q0 1.26.5 2.2.5.92 1.34 1.42.84.48 1.86.48t1.86-.48a3.6 3.6 0 0 0 1.36-1.42q.5-.94.5-2.18M314.86 254.48q0-1.68.68-2.94.68-1.28 1.86-1.98a5.2 5.2 0 0 1 2.66-.7q1.44 0 2.5.62t1.58 1.56v-2h1.84V260h-1.84v-2.04q-.54.96-1.62 1.6-1.06.62-2.48.62-1.46 0-2.64-.72t-1.86-2.02-.68-2.96m9.28.02q0-1.24-.5-2.16a3.44 3.44 0 0 0-1.36-1.4q-.84-.5-1.86-.5t-1.86.48-1.34 1.4-.5 2.16q0 1.26.5 2.2.5.92 1.34 1.42.84.48 1.86.48t1.86-.48a3.6 3.6 0 0 0 1.36-1.42q.5-.94.5-2.18m8.796 5.68q-1.26 0-2.26-.42-1-.44-1.58-1.2a3.24 3.24 0 0 1-.64-1.78h1.88q.08.82.76 1.34.7.52 1.82.52 1.04 0 1.64-.46t.6-1.16q0-.72-.64-1.06-.64-.36-1.98-.7a16 16 0 0 1-2-.64 3.8 3.8 0 0 1-1.32-.98q-.54-.66-.54-1.72 0-.84.5-1.54t1.42-1.1q.92-.42 2.1-.42 1.82 0 2.94.92t1.2 2.52h-1.82q-.06-.86-.7-1.38-.621-.52-1.68-.52-.981 0-1.56.42t-.58 1.1q0 .54.34.9.36.34.88.56.54.2 1.48.46 1.179.32 1.92.64.74.3 1.26.92.54.62.56 1.62 0 .9-.5 1.62t-1.42 1.14q-.9.4-2.08.4m10.449 0q-1.26 0-2.26-.42-1-.44-1.58-1.2a3.24 3.24 0 0 1-.64-1.78h1.88q.08.82.76 1.34.7.52 1.82.52 1.04 0 1.64-.46t.6-1.16q0-.72-.64-1.06-.64-.36-1.98-.7-1.22-.32-2-.64a3.8 3.8 0 0 1-1.32-.98q-.54-.66-.54-1.72 0-.84.5-1.54t1.42-1.1q.92-.42 2.1-.42 1.82 0 2.94.92t1.2 2.52h-1.82q-.06-.86-.7-1.38-.62-.52-1.68-.52-.98 0-1.56.42t-.58 1.1q0 .54.34.9.36.34.88.56.54.2 1.48.46 1.18.32 1.92.64.74.3 1.26.92.54.62.56 1.62 0 .9-.5 1.62t-1.42 1.14q-.9.4-2.08.4m7.509-12.92q-.52 0-.88-.36t-.36-.88.36-.88.88-.36q.5 0 .84.36.36.36.36.88t-.36.88a1.1 1.1 0 0 1-.84.36m.88 1.78V260h-1.82v-10.96zm6.982 11.14q-1.26 0-2.26-.42-1-.44-1.58-1.2a3.24 3.24 0 0 1-.64-1.78h1.88q.08.82.76 1.34.7.52 1.82.52 1.04 0 1.64-.46t.6-1.16q0-.72-.64-1.06-.64-.36-1.98-.7-1.22-.32-2-.64a3.8 3.8 0 0 1-1.32-.98q-.54-.66-.54-1.72 0-.84.5-1.54t1.42-1.1q.92-.42 2.1-.42 1.82 0 2.94.92t1.2 2.52h-1.82q-.06-.86-.7-1.38-.62-.52-1.68-.52-.98 0-1.56.42t-.58 1.1q0 .54.34.9.36.34.88.56.54.2 1.48.46 1.18.32 1.92.64.74.3 1.26.92.54.62.56 1.62 0 .9-.5 1.62t-1.42 1.14q-.9.4-2.08.4m8.789-9.64V257q0 .8.34 1.14.34.32 1.18.32h1.34V260h-1.64q-1.52 0-2.28-.7t-.76-2.3v-6.46h-1.42v-1.5h1.42v-2.76h1.82v2.76h2.86v1.5zm4.385 3.94q0-1.68.68-2.94.681-1.28 1.86-1.98a5.2 5.2 0 0 1 2.66-.7q1.44 0 2.5.62t1.58 1.56v-2h1.84V260h-1.84v-2.04q-.54.96-1.62 1.6-1.06.62-2.48.62-1.46 0-2.64-.72-1.179-.72-1.86-2.02-.68-1.3-.68-2.96m9.28.02q0-1.24-.5-2.16a3.44 3.44 0 0 0-1.36-1.4q-.84-.5-1.86-.5t-1.86.48-1.34 1.4-.5 2.16q0 1.26.5 2.2a3.63 3.63 0 0 0 1.34 1.42q.84.48 1.86.48t1.86-.48a3.57 3.57 0 0 0 1.36-1.42q.5-.94.5-2.18m10.256-5.66q2 0 3.24 1.22 1.24 1.2 1.24 3.48V260h-1.8v-6.2q0-1.64-.82-2.5-.82-.88-2.24-.88-1.44 0-2.3.9-.84.9-.84 2.62V260h-1.82v-10.96h1.82v1.56q.54-.84 1.46-1.3a4.6 4.6 0 0 1 2.06-.46m6.773 5.66q0-1.7.68-2.96a4.9 4.9 0 0 1 1.88-1.98q1.22-.7 2.78-.7 2.02 0 3.32.98 1.32.98 1.74 2.72h-1.96a2.8 2.8 0 0 0-1.1-1.58q-.8-.58-2-.58-1.56 0-2.52 1.08-.96 1.06-.96 3.02 0 1.98.96 3.06t2.52 1.08q1.2 0 2-.56t1.1-1.6h1.96q-.44 1.68-1.76 2.7-1.32 1-3.3 1-1.56 0-2.78-.7a4.9 4.9 0 0 1-1.88-1.98q-.68-1.28-.68-3m22.828-.4q0 .52-.06 1.1h-8.76q.1 1.62 1.1 2.54 1.02.9 2.46.9 1.18 0 1.96-.54a2.94 2.94 0 0 0 1.12-1.48h1.96a4.76 4.76 0 0 1-1.76 2.58q-1.32.98-3.28.98-1.56 0-2.8-.7a5 5 0 0 1-1.92-1.98q-.7-1.3-.7-3t.68-2.98a4.73 4.73 0 0 1 1.9-1.96q1.24-.7 2.84-.7 1.56 0 2.76.68t1.84 1.88q.66 1.18.66 2.68m-1.88-.38q0-1.04-.46-1.78a2.9 2.9 0 0 0-1.26-1.14q-.78-.4-1.74-.4-1.38 0-2.36.88-.96.88-1.1 2.44z"/><path fill="url(#i)" fill-rule="evenodd" d="M337.487 154.517c-2.053.168-3.976.761-5.485 1.741-1.76-1.371-3.814-2.244-6.017-2.4-2.578-.182-5.242.625-7.737 2.559-2.417 1.874-3.238 4.712-3.248 7.24-.009 2.49.764 4.992 1.937 6.425.581.709 1.467 1.663 2.286 2.495a3.261 3.261 0 0 0 2.9 3.313c.096.662.396 1.3.901 1.814a3.26 3.26 0 0 0 1.765.929 3.25 3.25 0 0 0 .924 2.027 3.26 3.26 0 0 0 2.268.978 3.118 3.118 0 0 0 5.206 1.477l1.948-1.908a3.1 3.1 0 0 0 .505-.646q.518.135 1.05.097c.933-.066 1.747-.522 2.322-1.136a3.7 3.7 0 0 0 .98-2.083 3.3 3.3 0 0 0 1.844-.945 3.26 3.26 0 0 0 .926-1.912 3.4 3.4 0 0 0 1.902-1.05 3.47 3.47 0 0 0 .909-2.028l.02-.022.058-.064c.245-.269 1.072-1.175 1.739-2.34.575-1.007 1.041-3.012.901-5.186-.144-2.23-.937-4.842-3.128-6.911-2.236-2.112-5.117-2.673-7.676-2.464m-1.775 23.02q.089.063.168.143c.278.277.491.305.62.296.163-.012.368-.1.547-.291a.98.98 0 0 0 .276-.619c.005-.169-.045-.394-.312-.653a639 639 0 0 1-5.897-5.822 1.344 1.344 0 0 1 0-1.902 1.347 1.347 0 0 1 1.903 0 967 967 0 0 0 5.865 5.791c.279.27.501.311.628.308a.6.6 0 0 0 .411-.183.56.56 0 0 0 .171-.399c-.001-.124-.048-.364-.362-.677a490 490 0 0 0-1.931-1.918c-1.22-1.205-2.523-2.486-3.474-3.42l-.4-.394a1.344 1.344 0 1 1 1.888-1.916l.401.394c1.492 1.467 3.867 3.801 5.42 5.352.292.292.505.317.611.311a.66.66 0 0 0 .439-.229.75.75 0 0 0 .21-.5c0-.13-.045-.331-.31-.571l-.046-.043-7.682-7.614-.232.223c-.683.656-1.417 1.354-1.79 1.692l-.126.12c-.396.378-1.342 1.285-2.587 1.763a4.9 4.9 0 0 1-2.59.274c-.972-.165-1.946-.632-2.902-1.444a1.343 1.343 0 0 1-.098-1.956c.981-1.02 3.254-3.373 5.404-5.579-1.286-.902-2.696-1.431-4.14-1.533-1.848-.131-3.868.428-5.897 2.001-1.55 1.201-2.199 3.111-2.206 5.125-.008 2.054.655 3.89 1.328 4.712.371.453.909 1.047 1.478 1.646l1.814-1.778a3.27 3.27 0 0 1 5.523 1.858c.72.081 1.419.401 1.966.959.558.568.866 1.29.925 2.027a3.25 3.25 0 0 1 1.764.929 3.25 3.25 0 0 1 .911 1.885 3.1 3.1 0 0 1 1.776.901c.219.222.397.469.535.731m9.341-9.794a9 9 0 0 1-.62.938l-.029-.025-8.587-8.51a1.346 1.346 0 0 0-1.884-.011l-.342.331a179 179 0 0 1-2.781 2.638c-.433.406-.958.897-1.655 1.165a2.18 2.18 0 0 1-1.524.045 1226 1226 0 0 1 5.209-5.364q.066-.053.138-.107c1.024-.768 2.786-1.487 4.728-1.646 2.04-.166 4.082.297 5.607 1.738 1.57 1.483 2.179 3.381 2.292 5.13.116 1.806-.307 3.25-.552 3.678m-23.065 4.39a.719.719 0 0 0 1.006 1.025l2.11-2.067a.717.717 0 1 0-1.006-1.025zm2.866 2.772a.718.718 0 1 0 1.007 1.025l2.109-2.067a.718.718 0 1 0-1.006-1.025zm2.68 3.971a.716.716 0 0 1 .01-1.015l2.11-2.067a.719.719 0 0 1 1.006 1.025l-2.11 2.067a.72.72 0 0 1-1.016-.01m3.077 1.614a.565.565 0 0 0 .791.806l1.947-1.908a.564.564 0 1 0-.791-.806z" clip-rule="evenodd"/><rect width="4" height="106" y="153" fill="url(#j)" rx="2"/><path fill="#fff" d="M13.09 197.6v-3.096h5.785V212h-3.456v-14.4zm9.104 5.424q0-4.152 1.488-6.504 1.512-2.352 4.992-2.352t4.968 2.352q1.512 2.352 1.512 6.504 0 4.176-1.512 6.552-1.488 2.376-4.968 2.376t-4.992-2.376q-1.488-2.376-1.488-6.552m9.648 0q0-1.776-.24-2.976-.216-1.224-.912-1.992-.672-.768-2.016-.768t-2.04.768q-.672.768-.912 1.992-.216 1.2-.216 2.976 0 1.824.216 3.072.216 1.224.912 1.992.696.744 2.04.744t2.04-.744q.696-.768.912-1.992.216-1.248.216-3.072m5.868 0q0-4.152 1.487-6.504 1.512-2.352 4.993-2.352 3.48 0 4.968 2.352 1.512 2.352 1.511 6.504 0 4.176-1.511 6.552-1.488 2.376-4.968 2.376t-4.992-2.376q-1.488-2.376-1.489-6.552m9.648 0q0-1.776-.24-2.976-.217-1.224-.913-1.992-.671-.768-2.015-.768t-2.04.768q-.672.768-.913 1.992-.216 1.2-.215 2.976 0 1.824.215 3.072.217 1.224.913 1.992.696.744 2.04.744t2.04-.744q.696-.768.912-1.992.215-1.248.215-3.072m5.483-4.224q0-1.824 1.056-2.856 1.08-1.032 2.76-1.032t2.736 1.032q1.08 1.032 1.08 2.856 0 1.848-1.08 2.88-1.056 1.032-2.736 1.032t-2.76-1.032q-1.056-1.032-1.056-2.88m15.408-3.6L58.817 212h-3.264l9.408-16.8zm-11.616 1.728q-1.32 0-1.32 1.872 0 1.896 1.32 1.896.648 0 1.008-.456.36-.48.36-1.44 0-1.872-1.368-1.872m6.744 11.448q0-1.848 1.056-2.856 1.08-1.032 2.76-1.032t2.712 1.032q1.056 1.008 1.056 2.856t-1.056 2.88q-1.032 1.032-2.712 1.032-1.704 0-2.76-1.032t-1.056-2.88m3.792-1.872q-1.368 0-1.368 1.872 0 1.896 1.368 1.896 1.344 0 1.344-1.896 0-1.872-1.344-1.872m23.457-11.256v2.712h-4.464V212h-3.36v-14.04h-4.464v-2.712zm5.812 5.52a4.76 4.76 0 0 1 1.68-1.656q1.056-.6 2.4-.6v3.528h-.888q-1.584 0-2.4.744-.792.744-.792 2.592V212h-3.36v-13.296h3.36zm8.047-3.648q-.888 0-1.488-.552a1.93 1.93 0 0 1-.576-1.416q0-.84.576-1.392.6-.576 1.488-.576t1.464.576q.6.552.6 1.392t-.6 1.416q-.576.552-1.464.552m1.656 1.584V212h-3.36v-13.296zm6.68 1.92q.648-.912 1.776-1.512 1.152-.624 2.616-.624 1.704 0 3.072.84 1.392.84 2.184 2.4.816 1.536.816 3.576t-.816 3.624q-.792 1.56-2.184 2.424-1.368.864-3.072.864-1.464 0-2.592-.6a5.6 5.6 0 0 1-1.8-1.512v8.232h-3.36v-19.632h3.36zm7.032 4.68q0-1.2-.504-2.064-.48-.888-1.296-1.344a3.4 3.4 0 0 0-1.728-.456q-.912 0-1.728.48-.792.456-1.296 1.344-.48.888-.48 2.088t.48 2.088q.504.888 1.296 1.368a3.5 3.5 0 0 0 1.728.456q.936 0 1.728-.48a3.45 3.45 0 0 0 1.296-1.368q.504-.888.504-2.112m14.952-4.68q.648-.912 1.776-1.512 1.152-.624 2.616-.624 1.704 0 3.072.84 1.392.84 2.184 2.4.816 1.536.816 3.576t-.816 3.624q-.792 1.56-2.184 2.424-1.368.864-3.072.864-1.464 0-2.592-.6a5.6 5.6 0 0 1-1.8-1.512v8.232h-3.36v-19.632h3.36zm7.032 4.68q0-1.2-.504-2.064-.48-.888-1.296-1.344a3.4 3.4 0 0 0-1.728-.456q-.912 0-1.728.48-.792.456-1.296 1.344-.48.888-.48 2.088t.48 2.088q.504.888 1.296 1.368a3.5 3.5 0 0 0 1.728.456q.936 0 1.728-.48a3.45 3.45 0 0 0 1.296-1.368q.504-.888.504-2.112m9.234-4.536a4.76 4.76 0 0 1 1.68-1.656q1.056-.6 2.4-.6v3.528h-.888q-1.584 0-2.4.744-.792.744-.792 2.592V212h-3.36v-13.296h3.36zm12.247 11.448q-1.92 0-3.456-.84a6.3 6.3 0 0 1-2.424-2.424q-.864-1.56-.864-3.6t.888-3.6a6.25 6.25 0 0 1 2.472-2.4q1.56-.864 3.48-.864t3.48.864a6.1 6.1 0 0 1 2.448 2.4q.912 1.56.912 3.6t-.936 3.6a6.4 6.4 0 0 1-2.496 2.424q-1.56.84-3.504.84m0-2.928q.912 0 1.704-.432.816-.456 1.296-1.344t.48-2.16q0-1.896-1.008-2.904-.984-1.032-2.424-1.032t-2.424 1.032q-.96 1.008-.96 2.904t.936 2.928q.96 1.008 2.4 1.008m13.313-7.824v6.432q0 .672.312.984.336.288 1.104.288h1.56V212h-2.112q-4.248 0-4.248-4.128v-6.408h-1.584v-2.76h1.584v-3.288h3.384v3.288h2.976v2.76zm17.752 3.6q0 .72-.096 1.296h-9.72q.12 1.44 1.008 2.256t2.184.816q1.872 0 2.664-1.608h3.624q-.576 1.92-2.208 3.168-1.632 1.224-4.008 1.224-1.92 0-3.456-.84a6.2 6.2 0 0 1-2.376-2.424q-.84-1.56-.84-3.6 0-2.064.84-3.624a5.86 5.86 0 0 1 2.352-2.4q1.512-.84 3.48-.84 1.896 0 3.384.816a5.63 5.63 0 0 1 2.328 2.328q.84 1.488.84 3.432m-3.48-.96q-.024-1.296-.936-2.064-.912-.792-2.232-.792-1.248 0-2.112.768-.84.744-1.032 2.088zm5.069 1.248q0-2.064.84-3.6.84-1.56 2.328-2.4 1.488-.864 3.408-.864 2.472 0 4.08 1.248 1.632 1.224 2.184 3.456h-3.624q-.288-.864-.984-1.344-.672-.504-1.68-.504-1.44 0-2.28 1.056-.84 1.032-.84 2.952 0 1.896.84 2.952.84 1.032 2.28 1.032 2.04 0 2.664-1.824h3.624q-.552 2.16-2.184 3.432t-4.08 1.272q-1.92 0-3.408-.84a6.1 6.1 0 0 1-2.328-2.4q-.84-1.56-.84-3.624m19.213-3.888v6.432q0 .672.312.984.336.288 1.104.288h1.56V212h-2.112q-4.248 0-4.248-4.128v-6.408h-1.584v-2.76h1.584v-3.288h3.384v3.288h2.976v2.76zm7.097-4.344q-.888 0-1.488-.552a1.93 1.93 0 0 1-.576-1.416q0-.84.576-1.392.6-.576 1.488-.576t1.464.576q.6.552.6 1.392t-.6 1.416q-.576.552-1.464.552m1.656 1.584V212h-3.36v-13.296zm9.224 13.512q-1.92 0-3.456-.84a6.3 6.3 0 0 1-2.424-2.424q-.864-1.56-.864-3.6t.888-3.6a6.25 6.25 0 0 1 2.472-2.4q1.56-.864 3.48-.864t3.48.864a6.1 6.1 0 0 1 2.448 2.4q.912 1.56.912 3.6t-.936 3.6a6.4 6.4 0 0 1-2.496 2.424q-1.56.84-3.504.84m0-2.928q.912 0 1.704-.432.816-.456 1.296-1.344t.48-2.16q0-1.896-1.008-2.904-.984-1.032-2.424-1.032t-2.424 1.032q-.96 1.008-.96 2.904t.936 2.928q.96 1.008 2.4 1.008m16.768-10.776q2.376 0 3.84 1.512 1.464 1.488 1.464 4.176v7.8h-3.36v-7.344q0-1.584-.792-2.424-.792-.864-2.16-.864-1.392 0-2.208.864-.792.84-.792 2.424V212h-3.36v-13.296h3.36v1.656a4.56 4.56 0 0 1 1.704-1.344 5.3 5.3 0 0 1 2.304-.504M19 227.54h-2.3V237h-1.82v-9.46h-1.42v-1.5h1.42v-.78q0-1.84.94-2.68.96-.86 3.06-.86v1.52q-1.2 0-1.7.48-.48.46-.48 1.54v.78H19zm6.902 9.64q-1.54 0-2.8-.7a5.1 5.1 0 0 1-1.96-1.98q-.7-1.3-.7-3 0-1.68.72-2.96.74-1.3 2-1.98 1.26-.7 2.82-.7t2.82.7q1.26.68 1.98 1.96.74 1.28.74 2.98t-.76 3a5.15 5.15 0 0 1-2.02 1.98q-1.28.7-2.84.7m0-1.6q.98 0 1.84-.46t1.38-1.38q.54-.92.54-2.24t-.52-2.24-1.36-1.36a3.7 3.7 0 0 0-1.82-.46q-1 0-1.84.46-.82.44-1.32 1.36t-.5 2.24q0 1.34.48 2.26.5.92 1.32 1.38a3.75 3.75 0 0 0 1.8.44m9.833-7.76a3.5 3.5 0 0 1 1.36-1.46q.9-.52 2.18-.52v1.88h-.48q-3.06 0-3.06 3.32V237h-1.82v-10.96h1.82zm10.293 3.66q0-1.68.68-2.94.68-1.28 1.86-1.98 1.2-.7 2.66-.7 1.44 0 2.5.62t1.58 1.56v-2h1.84V237h-1.84v-2.04q-.54.96-1.62 1.6-1.06.62-2.48.62-1.46 0-2.64-.72t-1.86-2.02-.68-2.96m9.28.02q0-1.24-.5-2.16a3.45 3.45 0 0 0-1.36-1.4q-.84-.5-1.86-.5t-1.86.48-1.34 1.4-.5 2.16q0 1.26.5 2.2.5.92 1.34 1.42.84.48 1.86.48t1.86-.48a3.6 3.6 0 0 0 1.36-1.42q.5-.94.5-2.18m14.128 5.68q-1.26 0-2.26-.42-1-.44-1.58-1.2a3.24 3.24 0 0 1-.64-1.78h1.88q.08.82.76 1.34.7.52 1.82.52 1.04 0 1.64-.46t.6-1.16q0-.72-.64-1.06-.64-.36-1.98-.7-1.22-.32-2-.64a3.8 3.8 0 0 1-1.32-.98q-.54-.66-.54-1.72 0-.84.5-1.54t1.42-1.1q.92-.42 2.1-.42 1.82 0 2.94.92t1.2 2.52h-1.82q-.06-.86-.7-1.38-.621-.52-1.68-.52-.981 0-1.56.42t-.58 1.1q0 .54.34.9.36.34.88.56.54.2 1.48.46 1.179.32 1.92.64.74.3 1.26.92.54.62.56 1.62 0 .9-.5 1.62t-1.42 1.14q-.9.4-2.08.4m5.889-5.7q0-1.68.68-2.94.68-1.28 1.86-1.98a5.2 5.2 0 0 1 2.66-.7q1.44 0 2.5.62t1.58 1.56v-2h1.84V237h-1.84v-2.04q-.54.96-1.62 1.6-1.06.62-2.48.62-1.46 0-2.64-.72t-1.86-2.02-.68-2.96m9.28.02q0-1.24-.5-2.16a3.44 3.44 0 0 0-1.36-1.4q-.84-.5-1.86-.5t-1.86.48-1.34 1.4-.5 2.16q0 1.26.5 2.2.5.92 1.34 1.42.84.48 1.86.48t1.86-.48a3.6 3.6 0 0 0 1.36-1.42q.5-.94.5-2.18m9.376-3.96h-2.3V237h-1.82v-9.46h-1.42v-1.5h1.42v-.78q0-1.84.94-2.68.96-.86 3.06-.86v1.52q-1.2 0-1.7.48-.48.46-.48 1.54v.78h2.3zm12.122 3.56q0 .52-.06 1.1h-8.76q.1 1.62 1.1 2.54 1.02.9 2.46.9 1.18 0 1.96-.54a2.95 2.95 0 0 0 1.12-1.48h1.96a4.77 4.77 0 0 1-1.76 2.58q-1.32.98-3.28.98-1.56 0-2.8-.7a5 5 0 0 1-1.92-1.98q-.7-1.3-.7-3t.68-2.98a4.73 4.73 0 0 1 1.9-1.96q1.24-.7 2.84-.7 1.56 0 2.76.68t1.84 1.88q.66 1.18.66 2.68m-1.88-.38q0-1.04-.46-1.78a2.9 2.9 0 0 0-1.26-1.14q-.78-.4-1.74-.4-1.38 0-2.36.88-.96.88-1.1 2.44zm6.162 3.76-2.24 5.38h-1.22l1.46-5.38zm12.857-8.64q1.24 0 2.24.54.999.52 1.56 1.58.58 1.06.58 2.58V237h-1.8v-6.2q0-1.64-.82-2.5-.82-.88-2.24-.88-1.44 0-2.3.9-.84.9-.84 2.62V237h-1.82v-14.8h1.82v5.4a3.6 3.6 0 0 1 1.48-1.3q.96-.46 2.14-.46m6.673 5.64q0-1.68.68-2.94.68-1.28 1.86-1.98 1.2-.7 2.66-.7 1.44 0 2.5.62t1.58 1.56v-2h1.84V237h-1.84v-2.04q-.54.96-1.62 1.6-1.06.62-2.48.62-1.461 0-2.64-.72t-1.86-2.02q-.68-1.3-.68-2.96m9.28.02q0-1.24-.5-2.16a3.45 3.45 0 0 0-1.36-1.4q-.84-.5-1.86-.5t-1.86.48-1.34 1.4-.5 2.16q0 1.26.5 2.2.5.92 1.34 1.42.84.48 1.86.48t1.86-.48a3.6 3.6 0 0 0 1.36-1.42q.5-.94.5-2.18m8.795 5.68q-1.26 0-2.26-.42-1-.44-1.58-1.2a3.25 3.25 0 0 1-.64-1.78h1.88q.08.82.76 1.34.7.52 1.82.52 1.04 0 1.64-.46t.6-1.16q0-.72-.64-1.06-.639-.36-1.98-.7-1.22-.32-2-.64a3.8 3.8 0 0 1-1.32-.98q-.54-.66-.54-1.72 0-.84.5-1.54t1.42-1.1q.921-.42 2.1-.42 1.821 0 2.94.92 1.12.92 1.2 2.52h-1.82q-.06-.86-.7-1.38-.62-.52-1.68-.52-.98 0-1.56.42t-.58 1.1q0 .54.34.9.36.34.88.56.54.2 1.48.46 1.18.32 1.92.64.741.3 1.26.92.54.62.56 1.62 0 .9-.5 1.62t-1.42 1.14q-.9.4-2.08.4m10.45 0q-1.26 0-2.26-.42-1-.44-1.58-1.2a3.24 3.24 0 0 1-.64-1.78h1.88q.08.82.76 1.34.7.52 1.82.52 1.04 0 1.64-.46t.6-1.16q0-.72-.64-1.06-.64-.36-1.98-.7a16 16 0 0 1-2-.64 3.8 3.8 0 0 1-1.32-.98q-.54-.66-.54-1.72 0-.84.5-1.54t1.42-1.1q.92-.42 2.1-.42 1.82 0 2.94.92t1.2 2.52h-1.82q-.06-.86-.7-1.38-.621-.52-1.68-.52-.981 0-1.56.42t-.58 1.1q0 .54.34.9.36.34.88.56.54.2 1.48.46 1.179.32 1.92.64.74.3 1.26.92.54.62.56 1.62 0 .9-.5 1.62t-1.42 1.14q-.9.4-2.08.4m8.389-14.98V237h-1.82v-14.8zm13.102 8.9q0 .52-.06 1.1h-8.76q.1 1.62 1.1 2.54 1.02.9 2.46.9 1.18 0 1.96-.54a2.95 2.95 0 0 0 1.12-1.48h1.96a4.77 4.77 0 0 1-1.76 2.58q-1.32.98-3.28.98-1.56 0-2.8-.7a5 5 0 0 1-1.92-1.98q-.7-1.3-.7-3t.68-2.98a4.7 4.7 0 0 1 1.9-1.96q1.24-.7 2.84-.7 1.56 0 2.76.68t1.84 1.88q.66 1.18.66 2.68m-1.88-.38q0-1.04-.46-1.78a2.9 2.9 0 0 0-1.26-1.14q-.78-.4-1.74-.4-1.38 0-2.36.88-.96.88-1.1 2.44zm11.882-1.82v1.54h-7.98v-1.54zm7.876-1.36h-2.3V237h-1.82v-9.46h-1.42v-1.5h1.42v-.78q0-1.84.94-2.68.96-.86 3.06-.86v1.52q-1.2 0-1.7.48-.48.46-.48 1.54v.78h2.3zm3.942.28a3.5 3.5 0 0 1 1.36-1.46q.9-.52 2.18-.52v1.88h-.48q-3.06 0-3.06 3.32V237h-1.82v-10.96h1.82zm15.641 3.28q0 .52-.06 1.1h-8.76q.1 1.62 1.1 2.54 1.02.9 2.46.9 1.18 0 1.96-.54a2.95 2.95 0 0 0 1.12-1.48h1.96a4.77 4.77 0 0 1-1.76 2.58q-1.32.98-3.28.98-1.56 0-2.8-.7a5 5 0 0 1-1.92-1.98q-.7-1.3-.7-3t.68-2.98a4.7 4.7 0 0 1 1.9-1.96q1.24-.7 2.84-.7 1.56 0 2.76.68t1.84 1.88q.66 1.18.66 2.68m-1.88-.38q0-1.04-.46-1.78a2.9 2.9 0 0 0-1.26-1.14q-.78-.4-1.74-.4-1.38 0-2.36.88-.96.88-1.1 2.44zm14.282.38q0 .52-.06 1.1h-8.76q.1 1.62 1.1 2.54 1.02.9 2.46.9 1.18 0 1.96-.54a2.95 2.95 0 0 0 1.12-1.48h1.96a4.76 4.76 0 0 1-1.76 2.58q-1.32.98-3.28.98-1.56 0-2.8-.7a5 5 0 0 1-1.92-1.98q-.7-1.3-.7-3t.68-2.98a4.73 4.73 0 0 1 1.9-1.96q1.24-.7 2.84-.7 1.56 0 2.76.68t1.84 1.88q.66 1.18.66 2.68m-1.88-.38q0-1.04-.46-1.78a2.9 2.9 0 0 0-1.26-1.14q-.78-.4-1.74-.4-1.38 0-2.36.88-.96.88-1.1 2.44zM13.86 253.48q0-1.68.68-2.94.68-1.28 1.86-1.98 1.2-.7 2.68-.7 1.28 0 2.38.6 1.1.58 1.68 1.54v-5.8h1.84V259h-1.84v-2.06q-.54.98-1.6 1.62-1.06.62-2.48.62-1.46 0-2.66-.72-1.18-.72-1.86-2.02t-.68-2.96m9.28.02q0-1.24-.5-2.16a3.44 3.44 0 0 0-1.36-1.4q-.84-.5-1.86-.5t-1.86.48-1.34 1.4-.5 2.16q0 1.26.5 2.2.5.92 1.34 1.42.84.48 1.86.48t1.86-.48a3.6 3.6 0 0 0 1.36-1.42q.5-.94.5-2.18m6.736-3.68a3.5 3.5 0 0 1 1.36-1.46q.9-.52 2.18-.52v1.88h-.48q-3.06 0-3.06 3.32V259h-1.82v-10.96h1.82zm6.58-3.56q-.52 0-.88-.36t-.36-.88.36-.88.88-.36q.501 0 .84.36.36.36.36.88t-.36.88a1.1 1.1 0 0 1-.84.36m.88 1.78V259h-1.82v-10.96zm7.182 9.28 3.4-9.28h1.94l-4.3 10.96h-2.12l-4.3-10.96h1.96zm17.131-4.22q0 .52-.06 1.1h-8.76q.1 1.62 1.1 2.54 1.02.9 2.46.9 1.18 0 1.96-.54a2.95 2.95 0 0 0 1.12-1.48h1.96a4.76 4.76 0 0 1-1.76 2.58q-1.32.98-3.28.98-1.56 0-2.8-.7a5 5 0 0 1-1.92-1.98q-.7-1.3-.7-3t.68-2.98a4.73 4.73 0 0 1 1.9-1.96q1.24-.7 2.84-.7 1.56 0 2.76.68t1.84 1.88q.66 1.18.66 2.68m-1.88-.38q0-1.04-.46-1.78a2.9 2.9 0 0 0-1.26-1.14q-.78-.4-1.74-.4-1.38 0-2.36.88-.96.88-1.1 2.44z"/><path fill="url(#k)" d="m26.5 153.312-13.875 4.626v13.874c0 7.664 6.211 13.876 13.875 13.876s13.875-6.212 13.875-13.876v-13.874zm11.273 18.5c0 6.226-5.047 11.274-11.273 11.274s-11.273-5.048-11.273-11.274v-11.923l11.273-3.975 11.273 3.975z"/><path fill="url(#l)" d="M21.673 168.167a1.29 1.29 0 0 0-1.84 0 1.29 1.29 0 0 0-.382.919 1.3 1.3 0 0 0 .382.92l4.676 4.675.076.076a1.24 1.24 0 0 0 .869.361 1.23 1.23 0 0 0 .869-.361l8.076-8.075a1.24 1.24 0 0 0 .36-.869 1.23 1.23 0 0 0-.36-.869l-.102-.102a1.22 1.22 0 0 0-.869-.36 1.23 1.23 0 0 0-.869.36l-7.107 7.104z"/><defs><linearGradient id="a" x1="29.5" x2="29.5" y1="16.25" y2="22.75" gradientUnits="userSpaceOnUse"><stop stop-color="#F1D49D"/><stop offset="1" stop-color="#FFC046"/></linearGradient><linearGradient id="b" x1="29.5" x2="29.5" y1="6.5" y2="34.125" gradientUnits="userSpaceOnUse"><stop stop-color="#F1D49D"/><stop offset="1" stop-color="#FFC046"/></linearGradient><linearGradient id="c" x1="2" x2="2" y1="3" y2="110" gradientUnits="userSpaceOnUse"><stop stop-color="#F1D49D"/><stop offset="1" stop-color="#FFCE73"/></linearGradient><linearGradient id="d" x1="221.656" x2="221.656" y1="13" y2="29.995" gradientUnits="userSpaceOnUse"><stop stop-color="#F1D49D"/><stop offset="1" stop-color="#FFC046"/></linearGradient><linearGradient id="e" x1="189" x2="189" y1="10" y2="107" gradientUnits="userSpaceOnUse"><stop stop-color="#F1D49D"/><stop offset="1" stop-color="#FFCE73"/></linearGradient><linearGradient id="f" x1="426" x2="426" y1="3" y2="109" gradientUnits="userSpaceOnUse"><stop stop-color="#F1D49D"/><stop offset="1" stop-color="#FFCE73"/></linearGradient><linearGradient id="g" x1="451" x2="451" y1="4" y2="34" gradientUnits="userSpaceOnUse"><stop stop-color="#F1D49D"/><stop offset="1" stop-color="#FFC046"/></linearGradient><linearGradient id="h" x1="304" x2="304" y1="151" y2="260" gradientUnits="userSpaceOnUse"><stop stop-color="#F1D49D"/><stop offset="1" stop-color="#FFCE73"/></linearGradient><linearGradient id="i" x1="331.658" x2="331.658" y1="153.833" y2="184.005" gradientUnits="userSpaceOnUse"><stop stop-color="#F1D49D"/><stop offset="1" stop-color="#FFC046"/></linearGradient><linearGradient id="j" x1="2" x2="2" y1="153" y2="259" gradientUnits="userSpaceOnUse"><stop stop-color="#F1D49D"/><stop offset="1" stop-color="#FFCE73"/></linearGradient><linearGradient id="k" x1="26.5" x2="26.5" y1="153.312" y2="185.688" gradientUnits="userSpaceOnUse"><stop stop-color="#F1D49D"/><stop offset="1" stop-color="#FFC046"/></linearGradient><linearGradient id="l" x1="27.105" x2="27.105" y1="164.482" y2="175.118" gradientUnits="userSpaceOnUse"><stop stop-color="#F1D49D"/><stop offset="1" stop-color="#FFC046"/></linearGradient></defs></svg>